<svg width="29" height="30" viewBox="0 0 29 30" fill="none" xmlns="http://www.w3.org/2000/svg">
<path d="M15.6648 13.3495C15.4848 13.2295 14.9446 12.8693 14.2244 12.4492C12.7839 11.5489 10.8033 10.2886 10.1431 9.74839C9.18282 9.02816 8.64266 8.24792 8.64266 7.40767C8.64266 7.04755 8.70268 6.62743 8.88273 6.32733C4.08125 9.38828 2.64081 15.6902 5.70175 20.4917C7.56232 23.4326 10.8633 25.2332 14.3444 25.2932C15.8449 25.2932 17.2853 24.693 18.3056 23.6727C19.2659 22.7124 19.7461 21.392 19.7461 20.0115C19.8061 16.3504 16.0849 13.6496 15.6648 13.3495ZM16.9252 4.94691C16.0849 4.76685 15.2447 4.76685 14.4644 4.82687C13.3841 5.06695 12.4238 5.54709 12.4238 6.56741C12.4238 7.64774 14.1644 8.488 16.6851 9.50831C20.4663 11.0688 23.8873 13.6496 24.6076 16.1704C24.6076 15.9303 24.6676 15.7502 24.6676 15.5102V14.91C24.7276 10.1085 21.3066 5.78717 16.9252 4.94691ZM14.4044 0.565559C6.42197 0.565559 0 6.98754 0 14.97C0 22.9524 6.42197 29.3744 14.4044 29.3744C22.3869 29.3744 28.8089 22.9524 28.8089 14.97C28.8089 7.04755 22.3269 0.565559 14.4044 0.565559ZM14.4044 27.3338C7.56233 27.3338 2.04063 21.8721 2.10065 14.97C2.10065 8.12789 7.68236 2.60619 14.4644 2.66621C21.2465 2.66621 26.7682 8.18791 26.7682 14.97C26.7682 21.8721 21.2465 27.3338 14.4044 27.3338Z" fill="#2C82C5"/>
</svg>
