<svg width="80" height="80" viewBox="0 0 80 80" fill="none" xmlns="http://www.w3.org/2000/svg">
<g clip-path="url(#clip0_5110_50)">
<path d="M39.8556 0C17.7617 0 0 18.0505 0 40.1444C0 62.2383 18.0505 80.1444 40.1444 80C62.2383 80 80 62.0939 80 40C80 17.9061 62.0939 0 39.8556 0C40 0 40 0 39.8556 0Z" fill="#11121C"/>
<path d="M39.8556 7.79783C22.2383 7.94224 7.79783 22.3827 7.94224 40.1444C7.94224 57.9061 22.3827 72.2022 40.1444 72.2022C57.9061 72.0578 72.2022 57.7617 72.2022 40C72.2022 22.2383 57.7617 7.79783 39.8556 7.79783C40 7.79783 40 7.79783 39.8556 7.79783Z" fill="white"/>
<path d="M43.0325 36.2455C42.5993 35.9567 41.2996 35.0903 39.5668 34.0794C36.1011 31.9134 31.3357 28.8809 29.7473 27.5812C27.4368 25.8484 26.1372 23.9711 26.1372 21.9495C26.1372 21.083 26.2816 20.0722 26.7148 19.3502C15.1624 26.7148 11.8411 42.0217 19.2058 53.574C23.8267 60.6498 31.6245 64.9819 39.8556 64.9819C43.4657 64.9819 46.9314 63.5379 49.3863 61.083C51.6967 58.7726 52.852 55.5957 52.7076 52.2744C52.852 43.3213 44.0433 36.9675 43.0325 36.2455ZM46.065 16.1733C44.0433 15.7401 42.0216 15.7401 40.1444 16.0289C37.5451 16.6065 35.2346 17.7617 35.2346 20.2166C35.2346 22.6715 39.4224 24.8375 45.4874 27.2924C54.5848 31.0469 62.8159 37.2563 64.5487 43.3213C64.5487 42.7437 64.6931 42.3105 64.6931 41.7328V40.2888C64.6931 28.4477 56.4621 18.0505 46.065 16.1733Z" fill="#2C82C5"/>
<path d="M39.8556 5.63177C20.6498 5.63177 5.19855 21.083 5.19855 40.2888C5.19855 59.4946 20.6498 74.9458 39.8556 74.9458C59.0614 74.9458 74.5126 59.4946 74.5126 40.2888C74.5126 21.083 59.0614 5.63177 39.8556 5.63177ZM39.8556 70.0361C23.3935 70.0361 10.1083 56.6065 10.2527 40.2888C10.3971 23.9711 23.6823 10.5415 40 10.5415C56.3177 10.5415 69.6029 23.8267 69.6029 40.1444C69.7473 56.6065 56.4621 70.0361 39.8556 70.0361C40 70.0361 40 70.0361 39.8556 70.0361Z" fill="#2C82C5"/>
</g>
<defs>
<clipPath id="clip0_5110_50">
<rect width="80" height="80" fill="white"/>
</clipPath>
</defs>
</svg>
